# AST/ASF file generated using VICON BodyLanguage
# -----------------------------------------------
:version 1.10
:name VICON
:units
  mass 1.0
  length 0.45
  angle deg
:documentation
   .ast/.asf automatically generated from VICON data using
   VICON BodyBuilder and BodyLanguage model FoxedUp or BRILLIANT.MOD
:root
   order TX TY TZ RX RY RZ
   axis XYZ
   position 0 0 0  
   orientation 0 0 0 
:bonedata
  begin
     id 1 
     name lhipjoint
     direction 0.570549 -0.739093 0.358072 
     length 2.41801 
     axis 0 0 0  XYZ
  end
  begin
     id 2 
     name lfemur
     direction 0.34202 -0.939693 0  
     length 7.44434  
     axis 0 0 20  XYZ
    dof rx ry rz
    limits (-160.0 20.0)
           (-70.0 70.0)
           (-60.0 70.0)
  end
  begin
     id 3 
     name ltibia
     direction 0.34202 -0.939693 0   
     length 7.60047   
     axis 0 0 20   XYZ
    dof rx
    limits (-10.0 170.0)
  end
  begin
     id 4 
     name lfoot
     direction 0.0909041 -0.249757 0.964032   
     length 2.03437   
     axis -90 7.62852e-016 20   XYZ
    dof rx rz
    limits (-45.0 90.0)
           (-70.0 20.0)
  end
  begin
     id 5 
     name ltoes
     direction 1.53547e-011 -4.2174e-011 1   
     length 1.02054   
     axis -90 7.62852e-016 20   XYZ
    dof rx
    limits (-90.0 20.0)
  end
  begin
     id 6 
     name rhipjoint
     direction -0.558096 -0.746754 0.361784   
     length 2.3932  
     axis 0 0 0  XYZ 
  end
  begin
     id 7 
     name rfemur
     direction -0.34202 -0.939693 0   
     length 7.3886   
     axis 0 0 -20   XYZ
    dof rx ry rz
    limits (-160.0 20.0)
           (-70.0 70.0)
           (-70.0 60.0)
  end
  begin
     id 8 
     name rtibia
     direction -0.34202 -0.939693 0   
     length 7.4839   
     axis 0 0 -20   XYZ
    dof rx
    limits (-10.0 170.0)
 end
 begin
     id 9 
     name rfoot
     direction -0.114619 -0.314914 0.942174   
     length 2.25127  
     axis -90 -7.62852e-016 -20   XYZ
    dof rx rz
    limits (-45.0 90.0)
           (-20.0 70.0)
  end
  begin
     id 10 
     name rtoes
     direction -1.53518e-011 -4.21881e-011 1   
     length 1.11821   
     axis -90 -7.62852e-016 -20   XYZ
    dof rx
    limits (-90.0 20.0)
  end
  begin
     id 11 
     name lowerback
     direction -0.00902269 0.996426 -0.0839821   
     length 2.25052   
     axis 0 0 0   XYZ
    dof rx ry rz
    limits (-20.0 45.0)
           (-30.0 30.0)
           (-30.0 30.0)
  end
  begin
     id 12 
     name upperback
     direction 0.0370973 0.999169 -0.0168941   
     length 2.24876   
     axis 0 0 0   XYZ
    dof rx ry rz
    limits (-20.0 45.0)
           (-30.0 30.0)
           (-30.0 30.0)
  end
  begin
     id 13 
     name thorax
     direction 0.0402726 0.998931 0.0227027   
     length 2.26408   
     axis 0 0 0   XYZ
    dof rx ry rz
    limits (-20.0 45.0)
           (-30.0 30.0)
           (-30.0 30.0)
  end
  begin
     id 14 
     name lowerneck
     direction -0.0733697 0.98508 0.155675   
     length 1.58204   
     axis 0 0 0   XYZ
    dof rx ry rz
    limits (-20.0 45.0)
           (-30.0 30.0)
           (-30.0 30.0)
  end
  begin
     id 15 
     name upperneck
     direction 0.0426554 0.993501 -0.105526   
     length 1.61222   
     axis 0 0 0   XYZ
    dof rx ry rz
    limits (-20.0 45.0)
           (-30.0 30.0)
           (-30.0 30.0)
  end
  begin
     id 16
     name head
     direction 0.020792 0.998384 -0.0528868  
     length 1.61527  
     axis 0 0 0   XYZ
    dof rx ry rz
    limits (-20.0 45.0)
           (-30.0 30.0)
           (-30.0 30.0)
  end
  begin
     id 17 
     name lclavicle
     direction 0.967109 0.155462 -0.201325  
     length 3.59357  
     axis 0 0 0   XYZ
    dof ry rz
    limits (-20.0 10.0)
           (0.0 20.0)
  end
  begin
     id 18 
     name lhumerus
     direction 1 -4.48968e-011 2.38195e-027   
     length 5.38154   
     axis 180 -30 -90   XYZ
    dof rx ry rz
    limits (-60.0 90.0)
           (-90.0 90.0)
           (-90.0 90.0)
  end
  begin
     id 19
     name lradius
     direction 1 -4.48961e-011 4.85371e-027   
     length 3.33312   
     axis 180 -30 -90   XYZ
    dof rx
    limits (-10.0 170.0)
  end
  begin
     id 20
     name lwrist
     direction 1 -4.48961e-011 4.76515e-027   
     length 1.66656   
     axis -3.27502e-015 90 90   XYZ
    dof ry
    limits (-180.0 0.0)
 end
  begin
     id 21 
     name lhand
     direction 1 -4.48951e-011 9.53074e-027   
     length 0.710789   
     axis -6.08098e-015 90 90   XYZ
    dof rx rz
    limits (-90.0 90.0)
           (-45.0 45.0)
  end
  begin
     id 22 
     name lfingers
     direction 1 -4.48953e-011 1.90613e-026   
     length 0.573057   
     axis -1.21619e-014 90 90   XYZ
    dof rx
    limits (0.0 90.0)
  end
  begin
     id 23
     name lthumb
     direction 0.707107 -6.34973e-011 0.707107   
     length 0.822798   
     axis -90 45 -9.86923e-015   XYZ
    dof rx rz
    limits (-45.0 45.0)
           (-45.0 45.0)
  end
  begin
     id 24 
     name rclavicle
     direction -0.9585 0.265289 -0.104398   
     length 3.42039  
     axis 0 0 0   XYZ 
    dof ry rz
    limits (-10.0 20.0)
           (-20.0 0.0)
  end
  begin
     id 25 
     name rhumerus
     direction -1 -4.48977e-011 2.21478e-027  
     length 5.16954   
     axis 180 30 90   XYZ
    dof rx ry rz
    limits (-90.0 60.0)
           (-90.0 90.0)
           (-90.0 90.0)
  end
  begin
     id 26 
     name rradius
     direction -1 -4.48967e-011 5.63677e-027   
     length 3.38287   
     axis 180 30 90   XYZ
    dof rx
    limits (-10.0 170.0)
  end
  begin
     id 27 
     name rwrist
     direction -1 -4.48967e-011 4.76501e-027   
     length 1.69144   
     axis -3.27502e-015 -90 -90   XYZ
    dof ry
    limits (-180.0 0.0)
  end
  begin
     id 28
     name rhand
     direction -1 -4.48902e-011 9.53292e-027   
     length 0.817967   
     axis -6.08098e-015 -90 -90   XYZ
    dof rx rz
    limits (-90.0 90.0)
           (-45.0 45.0)
  end
  begin
     id 29
     name rfingers
     direction -1 -4.49012e-011 1.90561e-026   
     length 0.659466   
     axis -1.21619e-014 -90 -90   XYZ
    dof rx
    limits (0.0 90.0)
  end
  begin
     id 30
     name rthumb
     direction -0.707107 -6.34944e-011 0.707107   
     length 0.946865   
     axis -90 -45 9.86923e-015   XYZ
    dof rx rz
    limits (-45.0 45.0)
           (-45.0 45.0)
  end
:hierarchy
  begin
    root lhipjoint rhipjoint lowerback
    lhipjoint lfemur
    lfemur ltibia
    ltibia lfoot
    lfoot ltoes
    rhipjoint rfemur
    rfemur rtibia
    rtibia rfoot
    rfoot rtoes
    lowerback upperback
    upperback thorax
    thorax lowerneck lclavicle rclavicle
    lowerneck upperneck
    upperneck head
    lclavicle lhumerus
    lhumerus lradius
    lradius lwrist
    lwrist lhand lthumb
    lhand lfingers
    rclavicle rhumerus
    rhumerus rradius
    rradius rwrist
    rwrist rhand rthumb
    rhand rfingers
  end

#!OML:ASF F:\twosubjects\two\wednesday\Session 1\Justin1.ASF
:FULLY-SPECIFIED
:DEGREES
211
root 14.0703 16.0666 -16.4631 -346.921 -7.21494 -377.813
lowerback 15.5195 3.36176 -6.46598
upperback 1.7742 3.39953 1.0335
thorax -7.24802 1.8451 4.02913
lowerneck -5.19048 -17.5622 -19.3414
upperneck 2.71696 -25.4356 29.4595
head 8.43878 -12.0206 9.32196
rclavicle -3.33958e-014 1.43125e-014
rhumerus 13.9892 -69.1048 -46.0362
rradius 33.9909
rwrist -64.6633
rhand -15.9735 -14.9943
rfingers 7.12502
rthumb 10.2257 -44.7258
lclavicle -3.33958e-014 1.43125e-014
lhumerus -27.9846 27.9508 9.14927
lradius 23.154
lwrist -12.0515
lhand -2.13261 36.3626
lfingers 7.12502
lthumb 23.5462 64.9412
rfemur -27.5564 7.21764 16.9607
rtibia 66.8035
rfoot 8.94498 19.2869
rtoes -6.40721
lfemur -37.8274 3.64901 -7.70545
ltibia 65.0341
lfoot -33.1799 -0.731874
ltoes -6.98964
212
root 14.2137 16.0935 -16.1984 -346.791 -8.44467 -377.528
lowerback 15.9893 3.24635 -6.70728
upperback 1.70565 3.15837 0.918261
thorax -7.55891 1.74238 4.07898
lowerneck -5.02128 -17.3437 -19.8776
upperneck 2.58209 -25.2037 30.0984
head 8.50753 -11.9309 9.69921
rclavicle 3.97569e-014 9.54166e-015
rhumerus 14.839 -69.2381 -46.8906
rradius 33.7418
rwrist -63.957
rhand -14.5972 -16.2845
rfingers 7.12502
rthumb 11.5532 -45.9461
lclavicle 3.97569e-014 9.54166e-015
lhumerus -27.4484 28.7002 8.95052
lradius 23.0805
lwrist -12.7407
lhand -2.69568 36.2247
lfingers 7.12502
lthumb 23.006 64.8717
rfemur -29.4425 5.52726 16.6667
rtibia 68.5105
rfoot 5.3568 17.3657
rtoes -10.1212
lfemur -36.2183 3.7086 -8.54116
ltibia 64.5974
lfoot -33.8758 -2.98223
ltoes 4.02208
213
root 14.3571 16.1245 -15.9298 -346.683 -9.67119 -376.871
lowerback 16.5257 3.16403 -7.12197
upperback 1.48053 2.89868 0.597954
thorax -8.07257 1.64374 4.00651
lowerneck -3.94671 -17.0665 -21.2538
upperneck 2.14121 -25.1485 31.9453
head 8.72621 -12.0205 10.6792
rclavicle 3.89618e-014 9.54166e-015
rhumerus 15.4437 -69.7402 -47.8336
rradius 33.5389
rwrist -62.9628
rhand -13.6641 -17.1308
rfingers 7.12502
rthumb 12.453 -46.7398
lclavicle 3.89618e-014 9.54166e-015
lhumerus -26.4691 29.9803 8.62044
lradius 22.5984
lwrist -13.9322
lhand -3.35438 35.6953
lfingers 7.12502
lthumb 22.3738 64.4197
rfemur -31.3417 3.56232 16.1442
rtibia 69.8169
rfoot 2.73275 15.0054
rtoes -11.5666
lfemur -34.686 3.7906 -9.97508
ltibia 63.8783
lfoot -33.7168 -4.15392
ltoes 8.31697
214
root 14.499 16.1418 -15.6493 -346.616 -10.9925 -376.063
lowerback 16.3173 3.15454 -7.46304
upperback 1.86121 2.81522 0.183872
thorax -7.52623 1.57786 3.78697
lowerneck -5.86414 -17.2933 -18.436
upperneck 2.43483 -24.9706 29.4628
head 8.22917 -11.7587 9.25731
rclavicle -2.8625e-014 9.54166e-015
rhumerus 16.1775 -70.0993 -48.7621
rradius 33.5187
rwrist -63.184
rhand -14.007 -16.9443
rfingers 7.12502
rthumb 12.1223 -46.5731
lclavicle -2.8625e-014 9.54166e-015
lhumerus -24.7906 30.6481 9.2504
lradius 22.3407
lwrist -13.5002
lhand -3.73316 35.1533
lfingers 7.12502
lthumb 22.0102 63.9209
rfemur -33.2124 1.51106 15.6456
rtibia 70.7749
rfoot 0.49003 12.5511
rtoes -10.4686
lfemur -33.2301 4.11512 -11.7987
ltibia 63.0143
lfoot -33.1676 -3.50018
ltoes 2.57372
215
root 14.6345 16.1675 -15.3628 -346.428 -12.31 -375.788
lowerback 16.5698 3.17934 -7.67887
upperback 1.79956 2.78151 0.174255
thorax -7.73867 1.57523 3.89683
lowerneck -5.40125 -17.367 -18.8673
upperneck 2.07712 -25.0446 29.5855
head 8.13363 -11.856 9.37387
rclavicle 3.33958e-014 1.59028e-014
rhumerus 14.8568 -69.1582 -47.21
rradius 33.5295
rwrist -64.1655
rhand -14.6588 -16.759
rfingers 7.12502
rthumb 11.4939 -46.4239
lclavicle 3.33958e-014 1.59028e-014
lhumerus -24.0461 29.3992 10.2546
lradius 22.8512
lwrist -11.7862
lhand -3.76462 35.3623
lfingers 7.12502
lthumb 21.98 64.1335
rfemur -35.0501 -0.422647 16.0294
rtibia 71.2945
rfoot -1.74991 10.2592
rtoes -9.9107
lfemur -31.7806 4.6186 -12.9821
ltibia 62.1121
lfoot -32.9456 -2.78919
ltoes -2.65619
216
root 14.7611 16.1892 -15.0808 -345.914 -13.5382 -375.948
lowerback 16.6911 3.20124 -7.64245
upperback 1.60977 2.82305 0.447167
thorax -8.03135 1.61428 4.15398
lowerneck -4.71951 -17.3258 -20.2198
upperneck 1.7617 -25.0609 30.3717
head 8.25624 -11.9381 9.89086
rclavicle -4.77083e-014 6.36111e-015
rhumerus 14.4926 -68.8891 -46.3296
rradius 33.4747
rwrist -64.2969
rhand -14.5033 -17.1913
rfingers 7.12502
rthumb 11.6438 -46.8478
lclavicle -4.77083e-014 6.36111e-015
lhumerus -23.5406 28.892 11.4072
lradius 23.3873
lwrist -10.8427
lhand -4.02094 35.122
lfingers 7.12502
lthumb 21.7338 63.9219
rfemur -37.2018 -2.26177 17.1908
rtibia 71.4194
rfoot -3.55395 8.10531
rtoes -10.1043
lfemur -30.6856 5.04146 -13.6465
ltibia 61.2957
lfoot -32.696 -2.20956
ltoes -5.51051
217
root 14.8819 16.2065 -14.7927 -345.393 -14.7838 -375.95
lowerback 16.706 3.1691 -7.7757
upperback 1.47141 2.76869 0.65704
thorax -8.20153 1.60714 4.46822
lowerneck -4.65363 -17.2504 -20.9768
upperneck 1.83845 -24.9899 30.6773
head 8.41633 -11.9097 10.1368
rclavicle -7.07673e-014 -4.45278e-014
rhumerus 15.2404 -69.0484 -46.7123
rradius 33.3836
rwrist -63.9157
rhand -14.6755 -17.2074
rfingers 7.12502
rthumb 11.4777 -46.8732
lclavicle -7.07673e-014 -4.45278e-014
lhumerus -22.7892 29.0435 12.4001
lradius 23.4095
lwrist -10.3329
lhand -4.71916 34.3971
lfingers 7.12502
lthumb 21.0632 63.2731
rfemur -39.3593 -4.07104 18.4043
rtibia 71.0871
rfoot -5.04377 6.43863
rtoes -11.6695
lfemur -29.592 5.42071 -14.5487
ltibia 60.4786
lfoot -32.1684 -1.52317
ltoes -7.91749
